<?xml version="1.0" encoding="UTF-8" standalone="no"?>
<svg
   xmlns:dc="http://purl.org/dc/elements/1.1/"
   xmlns:cc="http://creativecommons.org/ns#"
   xmlns:rdf="http://www.w3.org/1999/02/22-rdf-syntax-ns#"
   xmlns:svg="http://www.w3.org/2000/svg"
   xmlns="http://www.w3.org/2000/svg"
   id="svg110"
   version="1.2"
   viewBox="0 0 340.16 84.34"
   height="84.34pt"
   width="340.16pt">
  <metadata
     id="metadata114">
    <rdf:RDF>
      <cc:Work
         rdf:about="">
        <dc:format>image/svg+xml</dc:format>
        <dc:type
           rdf:resource="http://purl.org/dc/dcmitype/StillImage" />
        <dc:title></dc:title>
      </cc:Work>
    </rdf:RDF>
  </metadata>
  <defs
     id="defs11">
    <clipPath
       id="clip1">
      <path
         id="path2"
         d="M 314 34 L 340.160156 34 L 340.160156 65 L 314 65 Z M 314 34 " />
    </clipPath>
    <clipPath
       id="clip2">
      <path
         id="path5"
         d="M 190 75 L 196 75 L 196 84.339844 L 190 84.339844 Z M 190 75 " />
    </clipPath>
    <clipPath
       id="clip3">
      <path
         id="path8"
         d="M 328 75 L 335 75 L 335 84.339844 L 328 84.339844 Z M 328 75 " />
    </clipPath>
  </defs>
  <g
     id="surface554">
    <path
       id="path13"
       d="M 114.511719 54.941406 C 114.511719 57.8125 116.730469 59.246094 121.175781 59.246094 C 122.175781 59.246094 123.058594 59.125 123.828125 58.882812 C 124.601562 58.636719 125.382812 58.175781 126.175781 57.503906 C 126.964844 56.828125 127.574219 55.746094 127.996094 54.265625 C 128.421875 52.78125 128.632812 50.933594 128.632812 48.71875 C 128.632812 46.636719 128.421875 44.914062 127.996094 43.554688 C 127.574219 42.195312 126.964844 41.195312 126.175781 40.558594 C 125.382812 39.921875 124.5625 39.488281 123.71875 39.261719 C 122.871094 39.039062 121.863281 38.925781 120.695312 38.925781 C 118.53125 38.925781 116.46875 39.328125 114.511719 40.136719 Z M 109.21875 54.636719 L 109.21875 23.625 L 114.511719 23.625 L 114.511719 35.03125 C 116.507812 34.457031 118.566406 34.171875 120.695312 34.171875 C 122.351562 34.171875 123.890625 34.375 125.320312 34.78125 C 126.75 35.1875 128.152344 35.886719 129.523438 36.886719 C 130.898438 37.886719 131.972656 39.394531 132.753906 41.402344 C 133.53125 43.414062 133.925781 45.851562 133.925781 48.71875 C 133.925781 51.269531 133.628906 53.5 133.035156 55.414062 C 132.445312 57.328125 131.714844 58.8125 130.851562 59.871094 C 129.984375 60.925781 128.945312 61.785156 127.734375 62.445312 C 126.519531 63.105469 125.402344 63.53125 124.375 63.71875 C 123.351562 63.90625 122.285156 64 121.175781 64 C 119.078125 64 117.246094 63.742188 115.675781 63.222656 C 114.109375 62.703125 112.929688 62.085938 112.136719 61.371094 C 111.34375 60.652344 110.714844 59.8125 110.25 58.851562 C 109.789062 57.890625 109.5 57.097656 109.386719 56.476562 C 109.273438 55.855469 109.21875 55.242188 109.21875 54.636719 "
       style=" stroke:none;fill-rule:nonzero;fill:rgb(91.389465%,33.206177%,14.793396%);fill-opacity:1;" />
    <path
       id="path15"
       d="M 140.230469 63.546875 L 140.230469 34.625 L 145.523438 34.625 L 145.523438 63.546875 Z M 140.058594 30.152344 L 140.058594 24.546875 L 145.691406 24.546875 L 145.691406 30.152344 L 140.058594 30.152344 "
       style=" stroke:none;fill-rule:nonzero;fill:rgb(91.389465%,33.206177%,14.793396%);fill-opacity:1;" />
    <path
       id="path17"
       d="M 150.582031 39.152344 L 150.582031 34.625 L 155.621094 34.625 L 155.621094 26.050781 L 160.914062 26.050781 L 160.914062 34.625 L 168.609375 34.625 L 168.609375 39.152344 L 160.914062 39.152344 L 160.914062 55.871094 C 160.914062 58.121094 162.335938 59.246094 165.1875 59.246094 C 165.203125 59.246094 165.222656 59.246094 165.242188 59.246094 C 166.5625 59.246094 167.6875 58.964844 168.609375 58.402344 L 168.609375 63.199219 C 167.289062 63.734375 165.96875 64 164.648438 64 C 164.609375 64 164.5625 64 164.507812 64 C 163.808594 64 163.0625 63.917969 162.269531 63.746094 C 161.480469 63.578125 160.53125 63.242188 159.429688 62.746094 C 158.324219 62.246094 157.410156 61.378906 156.695312 60.148438 C 155.980469 58.914062 155.621094 57.386719 155.621094 55.558594 L 155.621094 39.152344 L 150.582031 39.152344 "
       style=" stroke:none;fill-rule:nonzero;fill:rgb(91.389465%,33.206177%,14.793396%);fill-opacity:1;" />
    <path
       id="path19"
       d="M 176.203125 60.175781 C 173.910156 57.625 172.765625 53.929688 172.765625 49.085938 C 172.765625 44.242188 173.910156 40.546875 176.203125 37.996094 C 178.496094 35.445312 181.839844 34.171875 186.238281 34.171875 C 189.179688 34.171875 192.019531 34.707031 194.757812 35.785156 L 194.757812 40.828125 C 192.132812 39.558594 189.480469 38.925781 186.804688 38.925781 C 186.765625 38.925781 186.726562 38.925781 186.691406 38.925781 C 184.03125 38.925781 181.945312 39.613281 180.4375 40.984375 C 178.925781 42.355469 178.171875 45.054688 178.171875 49.085938 C 178.171875 51.222656 178.390625 52.996094 178.835938 54.40625 C 179.277344 55.816406 179.941406 56.863281 180.816406 57.542969 C 181.695312 58.226562 182.582031 58.679688 183.476562 58.90625 C 184.375 59.132812 185.445312 59.246094 186.691406 59.246094 C 189.464844 59.246094 192.152344 58.632812 194.757812 57.402344 L 194.757812 62.40625 C 192.019531 63.46875 189.179688 64 186.238281 64 C 181.839844 64 178.496094 62.726562 176.203125 60.175781 "
       style=" stroke:none;fill-rule:nonzero;fill:rgb(91.389465%,33.206177%,14.793396%);fill-opacity:1;" />
    <path
       id="path21"
       d="M 204.046875 43.78125 C 203.621094 45.179688 203.410156 46.957031 203.410156 49.113281 C 203.410156 51.273438 203.621094 53.050781 204.046875 54.449219 C 204.46875 55.847656 205.105469 56.882812 205.953125 57.558594 C 206.800781 58.234375 207.65625 58.683594 208.523438 58.910156 C 209.390625 59.132812 210.441406 59.246094 211.675781 59.246094 C 212.90625 59.246094 213.957031 59.132812 214.824219 58.910156 C 215.691406 58.683594 216.550781 58.234375 217.394531 57.558594 C 218.242188 56.882812 218.878906 55.847656 219.304688 54.449219 C 219.726562 53.050781 219.9375 51.273438 219.9375 49.113281 C 219.9375 46.957031 219.726562 45.179688 219.304688 43.78125 C 218.878906 42.382812 218.242188 41.347656 217.394531 40.671875 C 216.550781 39.996094 215.691406 39.546875 214.824219 39.320312 C 213.957031 39.09375 212.90625 38.984375 211.675781 38.984375 C 210.441406 38.984375 209.390625 39.09375 208.523438 39.320312 C 207.65625 39.546875 206.800781 39.996094 205.953125 40.671875 C 205.105469 41.347656 204.46875 42.382812 204.046875 43.78125 Z M 199.226562 56.582031 C 198.414062 54.53125 198.003906 52.042969 198.003906 49.113281 C 198.003906 46.1875 198.414062 43.699219 199.226562 41.644531 C 200.039062 39.59375 201.148438 38.058594 202.554688 37.035156 C 203.953125 36.015625 205.390625 35.292969 206.859375 34.867188 C 208.328125 34.441406 209.933594 34.226562 211.675781 34.226562 C 213.417969 34.226562 215.023438 34.441406 216.488281 34.867188 C 217.957031 35.292969 219.394531 36.015625 220.796875 37.035156 C 222.199219 38.058594 223.308594 39.59375 224.121094 41.644531 C 224.933594 43.699219 225.34375 46.1875 225.34375 49.113281 C 225.34375 52.042969 224.933594 54.53125 224.121094 56.582031 C 223.308594 58.636719 222.199219 60.171875 220.796875 61.191406 C 219.394531 62.214844 217.957031 62.9375 216.488281 63.363281 C 215.023438 63.789062 213.417969 64 211.675781 64 C 209.933594 64 208.328125 63.789062 206.859375 63.363281 C 205.390625 62.9375 203.953125 62.214844 202.554688 61.191406 C 201.148438 60.171875 200.039062 58.636719 199.226562 56.582031 "
       style=" stroke:none;fill-rule:nonzero;fill:rgb(91.389465%,33.206177%,14.793396%);fill-opacity:1;" />
    <path
       id="path23"
       d="M 231.226562 63.546875 L 231.226562 34.625 L 236.515625 34.625 L 236.515625 63.546875 Z M 231.054688 30.152344 L 231.054688 24.546875 L 236.6875 24.546875 L 236.6875 30.152344 L 231.054688 30.152344 "
       style=" stroke:none;fill-rule:nonzero;fill:rgb(91.389465%,33.206177%,14.793396%);fill-opacity:1;" />
    <path
       id="path25"
       d="M 244.519531 63.546875 L 244.519531 37.078125 C 248.535156 35.105469 252.644531 34.113281 256.847656 34.113281 C 260.511719 34.113281 263.382812 35.066406 265.460938 36.972656 C 267.539062 38.878906 268.578125 41.519531 268.578125 44.898438 L 268.578125 63.546875 L 263.171875 63.546875 L 263.171875 44.484375 C 263.171875 42.785156 262.738281 41.441406 261.867188 40.457031 C 260.996094 39.472656 259.25 38.984375 256.621094 38.984375 C 254.257812 38.984375 251.988281 39.332031 249.8125 40.03125 L 249.8125 63.546875 L 244.519531 63.546875 "
       style=" stroke:none;fill-rule:nonzero;fill:rgb(91.389465%,33.206177%,14.793396%);fill-opacity:1;" />
    <path
       id="path27"
       d="M 275.234375 63.546875 L 275.234375 58.511719 L 280.640625 58.511719 L 280.640625 63.546875 L 275.234375 63.546875 "
       style=" stroke:none;fill-rule:nonzero;fill:rgb(91.389465%,33.206177%,14.793396%);fill-opacity:1;" />
    <path
       id="path29"
       d="M 289.957031 48.71875 C 289.957031 50.953125 290.167969 52.804688 290.59375 54.277344 C 291.015625 55.753906 291.621094 56.828125 292.414062 57.503906 C 293.203125 58.175781 293.984375 58.636719 294.757812 58.882812 C 295.53125 59.125 296.441406 59.246094 297.496094 59.246094 C 301.941406 59.246094 304.152344 57.8125 304.136719 54.941406 L 304.136719 40.136719 C 302.175781 39.328125 300.113281 38.925781 297.949219 38.925781 C 296.800781 38.925781 295.800781 39.039062 294.941406 39.261719 C 294.085938 39.488281 293.25 39.921875 292.441406 40.558594 C 291.632812 41.195312 291.015625 42.195312 290.59375 43.554688 C 290.167969 44.914062 289.957031 46.636719 289.957031 48.71875 Z M 284.664062 48.71875 C 284.664062 45.851562 285.058594 43.414062 285.851562 41.402344 C 286.648438 39.394531 287.726562 37.886719 289.097656 36.886719 C 290.46875 35.886719 291.867188 35.1875 293.304688 34.78125 C 294.738281 34.375 296.289062 34.171875 297.949219 34.171875 C 300.039062 34.171875 302.101562 34.457031 304.136719 35.03125 L 304.136719 23.671875 L 309.425781 23.671875 L 309.425781 54.648438 C 309.425781 55.269531 309.367188 55.886719 309.242188 56.496094 C 309.121094 57.109375 308.828125 57.898438 308.367188 58.859375 C 307.90625 59.820312 307.277344 60.65625 306.488281 61.375 C 305.695312 62.089844 304.519531 62.707031 302.953125 63.222656 C 301.390625 63.742188 299.570312 64 297.496094 64 C 296.382812 64 295.3125 63.90625 294.28125 63.71875 C 293.253906 63.53125 292.128906 63.105469 290.910156 62.445312 C 289.691406 61.785156 288.648438 60.925781 287.78125 59.871094 C 286.910156 58.8125 286.175781 57.328125 285.570312 55.414062 C 284.964844 53.5 284.664062 51.269531 284.664062 48.71875 "
       style=" stroke:none;fill-rule:nonzero;fill:rgb(91.389465%,33.206177%,14.793396%);fill-opacity:1;" />
    <g
       id="g33"
       clip-rule="nonzero"
       clip-path="url(#clip1)">
      <path
         id="path31"
         d="M 319.921875 47.332031 L 334.78125 47.332031 C 334.703125 46.367188 334.539062 45.449219 334.285156 44.574219 C 334.03125 43.695312 333.644531 42.804688 333.125 41.898438 C 332.605469 40.992188 331.855469 40.269531 330.875 39.730469 C 329.894531 39.195312 328.722656 38.925781 327.363281 38.925781 C 324.933594 38.925781 323.144531 39.554688 322.003906 40.808594 C 320.859375 42.0625 320.167969 44.238281 319.921875 47.332031 Z M 314.601562 49.429688 C 314.601562 39.257812 318.855469 34.171875 327.363281 34.171875 C 327.386719 34.171875 327.402344 34.171875 327.421875 34.171875 C 331.289062 34.171875 334.378906 35.433594 336.691406 37.960938 C 339.003906 40.488281 340.15625 43.871094 340.15625 48.113281 C 340.15625 49.496094 340.101562 50.816406 339.988281 52.085938 L 320.007812 52.085938 C 320.648438 57.050781 323.363281 59.53125 328.15625 59.53125 C 332.0625 59.53125 335.394531 58.804688 338.148438 57.355469 L 338.148438 62.171875 C 335.167969 63.429688 331.800781 64.058594 328.046875 64.058594 C 327.988281 64.058594 327.929688 64.058594 327.875 64.058594 C 326.175781 64.058594 324.609375 63.84375 323.175781 63.421875 C 321.742188 62.996094 320.347656 62.289062 318.992188 61.308594 C 317.632812 60.324219 316.5625 58.816406 315.777344 56.785156 C 314.992188 54.753906 314.601562 52.300781 314.601562 49.429688 "
         style=" stroke:none;fill-rule:nonzero;fill:rgb(91.389465%,33.206177%,14.793396%);fill-opacity:1;" />
    </g>
    <path
       id="path35"
       d="M 111.492188 80.722656 L 113.449219 80.710938 C 114.117188 80.710938 114.613281 80.597656 114.9375 80.375 C 115.261719 80.148438 115.421875 79.777344 115.421875 79.257812 C 115.421875 78.722656 115.242188 78.355469 114.890625 78.160156 C 114.535156 77.96875 114.027344 77.871094 113.363281 77.871094 L 111.492188 77.871094 Z M 111.492188 76.804688 L 113.265625 76.804688 C 113.804688 76.804688 114.214844 76.714844 114.492188 76.535156 C 114.773438 76.359375 114.914062 76.023438 114.914062 75.53125 C 114.914062 75.035156 114.765625 74.683594 114.46875 74.488281 C 114.171875 74.292969 113.730469 74.195312 113.152344 74.195312 L 111.492188 74.195312 Z M 110.28125 81.785156 L 110.28125 73.132812 L 113.28125 73.132812 C 113.867188 73.132812 114.363281 73.210938 114.765625 73.367188 C 115.171875 73.523438 115.460938 73.730469 115.644531 73.988281 C 115.824219 74.25 115.949219 74.496094 116.019531 74.734375 C 116.089844 74.96875 116.125 75.222656 116.125 75.496094 C 116.125 75.746094 116.089844 75.976562 116.019531 76.1875 C 115.949219 76.398438 115.867188 76.570312 115.765625 76.695312 C 115.667969 76.824219 115.566406 76.933594 115.464844 77.023438 C 115.359375 77.117188 115.273438 77.179688 115.199219 77.210938 L 115.097656 77.261719 L 115.261719 77.332031 C 115.332031 77.355469 115.453125 77.425781 115.628906 77.539062 C 115.804688 77.648438 115.957031 77.773438 116.089844 77.910156 C 116.222656 78.046875 116.347656 78.242188 116.460938 78.492188 C 116.574219 78.742188 116.632812 79.015625 116.632812 79.308594 C 116.632812 79.597656 116.59375 79.863281 116.515625 80.113281 C 116.4375 80.363281 116.300781 80.625 116.101562 80.894531 C 115.902344 81.167969 115.585938 81.386719 115.144531 81.546875 C 114.710938 81.707031 114.171875 81.785156 113.527344 81.785156 L 110.28125 81.785156 "
       style=" stroke:none;fill-rule:nonzero;fill:rgb(28.834534%,37.812805%,53.109741%);fill-opacity:1;" />
    <path
       id="path37"
       d="M 118.253906 81.785156 L 118.253906 75.3125 L 119.4375 75.3125 L 119.4375 81.785156 Z M 118.214844 74.308594 L 118.214844 73.054688 L 119.476562 73.054688 L 119.476562 74.308594 L 118.214844 74.308594 "
       style=" stroke:none;fill-rule:nonzero;fill:rgb(28.834534%,37.812805%,53.109741%);fill-opacity:1;" />
    <path
       id="path39"
       d="M 120.84375 76.324219 L 120.84375 75.3125 L 121.972656 75.3125 L 121.972656 73.390625 L 123.15625 73.390625 L 123.15625 75.3125 L 124.878906 75.3125 L 124.878906 76.324219 L 123.15625 76.324219 L 123.15625 80.066406 C 123.15625 80.570312 123.476562 80.824219 124.113281 80.824219 C 124.117188 80.824219 124.121094 80.824219 124.125 80.824219 C 124.421875 80.824219 124.671875 80.761719 124.878906 80.632812 L 124.878906 81.707031 C 124.585938 81.828125 124.289062 81.886719 123.992188 81.886719 C 123.984375 81.886719 123.972656 81.886719 123.960938 81.886719 C 123.804688 81.886719 123.636719 81.867188 123.460938 81.832031 C 123.28125 81.792969 123.070312 81.71875 122.824219 81.605469 C 122.578125 81.496094 122.371094 81.300781 122.214844 81.023438 C 122.050781 80.75 121.972656 80.40625 121.972656 79.996094 L 121.972656 76.324219 L 120.84375 76.324219 "
       style=" stroke:none;fill-rule:nonzero;fill:rgb(28.834534%,37.812805%,53.109741%);fill-opacity:1;" />
    <path
       id="path41"
       d="M 126.851562 81.03125 C 126.339844 80.460938 126.082031 79.632812 126.082031 78.546875 C 126.082031 77.464844 126.339844 76.636719 126.851562 76.066406 C 127.367188 75.496094 128.113281 75.210938 129.097656 75.210938 C 129.757812 75.210938 130.394531 75.328125 131.007812 75.570312 L 131.007812 76.699219 C 130.417969 76.414062 129.824219 76.273438 129.226562 76.273438 C 129.21875 76.273438 129.210938 76.273438 129.199219 76.273438 C 128.605469 76.273438 128.136719 76.425781 127.800781 76.734375 C 127.460938 77.042969 127.292969 77.644531 127.292969 78.546875 C 127.292969 79.027344 127.34375 79.425781 127.441406 79.738281 C 127.539062 80.054688 127.6875 80.289062 127.886719 80.441406 C 128.082031 80.59375 128.28125 80.695312 128.480469 80.746094 C 128.683594 80.796875 128.921875 80.824219 129.199219 80.824219 C 129.820312 80.824219 130.425781 80.683594 131.007812 80.410156 L 131.007812 81.53125 C 130.394531 81.769531 129.757812 81.886719 129.097656 81.886719 C 128.113281 81.886719 127.367188 81.601562 126.851562 81.03125 "
       style=" stroke:none;fill-rule:nonzero;fill:rgb(28.834534%,37.812805%,53.109741%);fill-opacity:1;" />
    <path
       id="path43"
       d="M 133.359375 77.359375 C 133.261719 77.671875 133.214844 78.070312 133.214844 78.554688 C 133.214844 79.039062 133.261719 79.4375 133.359375 79.75 C 133.453125 80.0625 133.59375 80.292969 133.785156 80.445312 C 133.976562 80.597656 134.164062 80.699219 134.359375 80.746094 C 134.554688 80.796875 134.789062 80.824219 135.066406 80.824219 C 135.34375 80.824219 135.578125 80.796875 135.769531 80.746094 C 135.964844 80.699219 136.15625 80.597656 136.347656 80.445312 C 136.535156 80.292969 136.679688 80.0625 136.773438 79.75 C 136.867188 79.4375 136.914062 79.039062 136.914062 78.554688 C 136.914062 78.070312 136.867188 77.671875 136.773438 77.359375 C 136.679688 77.046875 136.535156 76.816406 136.347656 76.664062 C 136.15625 76.511719 135.964844 76.414062 135.769531 76.363281 C 135.578125 76.3125 135.34375 76.285156 135.066406 76.285156 C 134.789062 76.285156 134.554688 76.3125 134.359375 76.363281 C 134.164062 76.414062 133.976562 76.511719 133.785156 76.664062 C 133.59375 76.816406 133.453125 77.046875 133.359375 77.359375 Z M 132.277344 80.226562 C 132.097656 79.765625 132.007812 79.210938 132.007812 78.554688 C 132.007812 77.898438 132.097656 77.339844 132.277344 76.882812 C 132.460938 76.421875 132.710938 76.078125 133.023438 75.851562 C 133.335938 75.621094 133.660156 75.460938 133.988281 75.363281 C 134.316406 75.269531 134.675781 75.222656 135.066406 75.222656 C 135.457031 75.222656 135.816406 75.269531 136.144531 75.363281 C 136.472656 75.460938 136.796875 75.621094 137.109375 75.851562 C 137.421875 76.078125 137.671875 76.421875 137.851562 76.882812 C 138.035156 77.339844 138.128906 77.898438 138.128906 78.554688 C 138.128906 79.210938 138.035156 79.765625 137.851562 80.226562 C 137.671875 80.6875 137.421875 81.03125 137.109375 81.257812 C 136.796875 81.488281 136.472656 81.648438 136.144531 81.746094 C 135.816406 81.839844 135.457031 81.886719 135.066406 81.886719 C 134.675781 81.886719 134.316406 81.839844 133.988281 81.746094 C 133.660156 81.648438 133.335938 81.488281 133.023438 81.257812 C 132.710938 81.03125 132.460938 80.6875 132.277344 80.226562 "
       style=" stroke:none;fill-rule:nonzero;fill:rgb(28.834534%,37.812805%,53.109741%);fill-opacity:1;" />
    <path
       id="path45"
       d="M 139.714844 81.785156 L 139.714844 75.3125 L 140.902344 75.3125 L 140.902344 81.785156 Z M 139.679688 74.308594 L 139.679688 73.054688 L 140.9375 73.054688 L 140.9375 74.308594 L 139.679688 74.308594 "
       style=" stroke:none;fill-rule:nonzero;fill:rgb(28.834534%,37.812805%,53.109741%);fill-opacity:1;" />
    <path
       id="path47"
       d="M 142.964844 81.785156 L 142.964844 75.859375 C 143.863281 75.417969 144.785156 75.195312 145.726562 75.195312 C 146.546875 75.195312 147.1875 75.410156 147.652344 75.835938 C 148.117188 76.261719 148.351562 76.855469 148.351562 77.609375 L 148.351562 81.785156 L 147.140625 81.785156 L 147.140625 77.519531 C 147.140625 77.136719 147.042969 76.835938 146.847656 76.617188 C 146.652344 76.394531 146.261719 76.285156 145.675781 76.285156 C 145.144531 76.285156 144.636719 76.363281 144.148438 76.519531 L 144.148438 81.785156 L 142.964844 81.785156 "
       style=" stroke:none;fill-rule:nonzero;fill:rgb(28.834534%,37.812805%,53.109741%);fill-opacity:1;" />
    <path
       id="path49"
       d="M 150.46875 78.429688 L 150.46875 77.414062 L 154.421875 77.414062 L 154.421875 78.429688 L 150.46875 78.429688 "
       style=" stroke:none;fill-rule:nonzero;fill:rgb(28.834534%,37.812805%,53.109741%);fill-opacity:1;" />
    <path
       id="path51"
       d="M 156.535156 81.785156 L 156.535156 73.132812 L 157.847656 73.132812 L 160.683594 76.871094 L 163.539062 73.132812 L 164.847656 73.132812 L 164.847656 81.785156 L 163.640625 81.785156 L 163.640625 74.960938 L 160.683594 78.839844 L 157.746094 74.960938 L 157.746094 81.785156 L 156.535156 81.785156 "
       style=" stroke:none;fill-rule:nonzero;fill:rgb(28.834534%,37.812805%,53.109741%);fill-opacity:1;" />
    <path
       id="path53"
       d="M 167.730469 79.726562 C 167.730469 80.457031 168.25 80.824219 169.285156 80.824219 C 169.289062 80.824219 169.296875 80.824219 169.304688 80.824219 C 170.285156 80.824219 170.773438 80.472656 170.773438 79.773438 L 170.773438 78.726562 C 170.460938 78.675781 170.085938 78.648438 169.648438 78.644531 C 169.476562 78.644531 169.292969 78.660156 169.101562 78.691406 C 168.914062 78.722656 168.710938 78.769531 168.488281 78.839844 C 168.269531 78.90625 168.089844 79.015625 167.945312 79.171875 C 167.804688 79.328125 167.730469 79.511719 167.730469 79.726562 Z M 166.546875 79.738281 C 166.546875 79.101562 166.816406 78.597656 167.359375 78.238281 C 167.898438 77.878906 168.644531 77.699219 169.597656 77.699219 C 170.003906 77.699219 170.394531 77.726562 170.773438 77.777344 C 170.746094 77.230469 170.597656 76.839844 170.328125 76.601562 C 170.054688 76.367188 169.609375 76.25 168.988281 76.25 C 168.429688 76.25 167.828125 76.355469 167.195312 76.570312 L 167.195312 75.558594 C 167.808594 75.324219 168.460938 75.210938 169.152344 75.210938 C 170.054688 75.210938 170.753906 75.441406 171.246094 75.910156 C 171.738281 76.375 171.984375 77.046875 171.984375 77.921875 L 171.984375 79.789062 C 171.984375 79.929688 171.96875 80.066406 171.941406 80.207031 C 171.914062 80.34375 171.847656 80.519531 171.746094 80.734375 C 171.640625 80.949219 171.5 81.136719 171.320312 81.296875 C 171.144531 81.460938 170.878906 81.597656 170.519531 81.714844 C 170.164062 81.828125 169.753906 81.886719 169.285156 81.886719 C 168.808594 81.886719 168.390625 81.828125 168.03125 81.707031 C 167.671875 81.585938 167.402344 81.445312 167.21875 81.285156 C 167.035156 81.125 166.890625 80.933594 166.785156 80.710938 C 166.675781 80.492188 166.609375 80.308594 166.585938 80.164062 C 166.558594 80.023438 166.546875 79.878906 166.546875 79.738281 "
       style=" stroke:none;fill-rule:nonzero;fill:rgb(28.834534%,37.812805%,53.109741%);fill-opacity:1;" />
    <path
       id="path55"
       d="M 173.585938 81.785156 L 173.585938 75.855469 C 174.664062 75.425781 175.71875 75.210938 176.738281 75.210938 L 176.738281 76.300781 C 176.09375 76.308594 175.4375 76.398438 174.769531 76.570312 L 174.769531 81.785156 L 173.585938 81.785156 "
       style=" stroke:none;fill-rule:nonzero;fill:rgb(28.834534%,37.812805%,53.109741%);fill-opacity:1;" />
    <path
       id="path57"
       d="M 178.054688 81.785156 L 178.054688 72.847656 L 179.242188 72.847656 L 179.242188 78.023438 L 182.042969 75.3125 L 183.652344 75.3125 L 180.839844 78.011719 L 184.023438 81.785156 L 182.449219 81.785156 L 180.046875 78.777344 L 179.242188 79.554688 L 179.242188 81.785156 L 178.054688 81.785156 "
       style=" stroke:none;fill-rule:nonzero;fill:rgb(28.834534%,37.812805%,53.109741%);fill-opacity:1;" />
    <path
       id="path59"
       d="M 184.753906 76.324219 L 184.753906 75.3125 L 185.882812 75.3125 L 185.882812 73.390625 L 187.066406 73.390625 L 187.066406 75.3125 L 188.789062 75.3125 L 188.789062 76.324219 L 187.066406 76.324219 L 187.066406 80.066406 C 187.066406 80.570312 187.386719 80.824219 188.023438 80.824219 C 188.027344 80.824219 188.03125 80.824219 188.035156 80.824219 C 188.332031 80.824219 188.582031 80.761719 188.789062 80.632812 L 188.789062 81.707031 C 188.492188 81.828125 188.199219 81.886719 187.902344 81.886719 C 187.894531 81.886719 187.882812 81.886719 187.871094 81.886719 C 187.714844 81.886719 187.546875 81.867188 187.371094 81.832031 C 187.191406 81.792969 186.980469 81.71875 186.734375 81.605469 C 186.484375 81.496094 186.28125 81.300781 186.121094 81.023438 C 185.960938 80.75 185.882812 80.40625 185.882812 79.996094 L 185.882812 76.324219 L 184.753906 76.324219 "
       style=" stroke:none;fill-rule:nonzero;fill:rgb(28.834534%,37.812805%,53.109741%);fill-opacity:1;" />
    <g
       id="g63"
       clip-rule="nonzero"
       clip-path="url(#clip2)">
      <path
         id="path61"
         d="M 191.488281 80.5625 C 191.9375 80.738281 192.394531 80.824219 192.867188 80.824219 C 193.132812 80.824219 193.359375 80.796875 193.550781 80.746094 C 193.734375 80.695312 193.921875 80.597656 194.101562 80.457031 C 194.285156 80.3125 194.425781 80.085938 194.519531 79.78125 C 194.613281 79.476562 194.660156 79.085938 194.660156 78.617188 C 194.660156 78.117188 194.613281 77.699219 194.519531 77.367188 C 194.425781 77.035156 194.289062 76.792969 194.109375 76.640625 C 193.929688 76.488281 193.757812 76.386719 193.582031 76.332031 C 193.410156 76.277344 193.210938 76.25 192.984375 76.25 C 191.988281 76.25 191.488281 76.570312 191.488281 77.21875 Z M 190.304688 84.25 L 190.304688 77.292969 C 190.304688 77.15625 190.316406 77.015625 190.339844 76.878906 C 190.367188 76.742188 190.429688 76.566406 190.535156 76.355469 C 190.636719 76.144531 190.777344 75.960938 190.953125 75.796875 C 191.132812 75.636719 191.398438 75.5 191.753906 75.382812 C 192.105469 75.265625 192.515625 75.210938 192.984375 75.210938 C 193.226562 75.210938 193.460938 75.230469 193.691406 75.273438 C 193.921875 75.316406 194.175781 75.410156 194.445312 75.558594 C 194.71875 75.707031 194.953125 75.898438 195.152344 76.132812 C 195.347656 76.371094 195.515625 76.703125 195.648438 77.132812 C 195.78125 77.5625 195.847656 78.054688 195.847656 78.617188 C 195.847656 79.261719 195.761719 79.808594 195.585938 80.261719 C 195.410156 80.714844 195.167969 81.054688 194.859375 81.273438 C 194.550781 81.492188 194.238281 81.648438 193.921875 81.746094 C 193.601562 81.839844 193.25 81.886719 192.867188 81.886719 C 192.386719 81.886719 191.929688 81.824219 191.488281 81.699219 L 191.488281 84.25 L 190.304688 84.25 "
         style=" stroke:none;fill-rule:nonzero;fill:rgb(28.834534%,37.812805%,53.109741%);fill-opacity:1;" />
    </g>
    <path
       id="path65"
       d="M 197.59375 81.785156 L 197.59375 72.847656 L 198.78125 72.847656 L 198.78125 81.785156 L 197.59375 81.785156 "
       style=" stroke:none;fill-rule:nonzero;fill:rgb(28.834534%,37.812805%,53.109741%);fill-opacity:1;" />
    <path
       id="path67"
       d="M 201.585938 79.726562 C 201.585938 80.457031 202.105469 80.824219 203.140625 80.824219 C 203.144531 80.824219 203.152344 80.824219 203.160156 80.824219 C 204.136719 80.824219 204.628906 80.472656 204.628906 79.773438 L 204.628906 78.726562 C 204.316406 78.675781 203.941406 78.648438 203.503906 78.644531 C 203.328125 78.644531 203.148438 78.660156 202.957031 78.691406 C 202.769531 78.722656 202.5625 78.769531 202.34375 78.839844 C 202.125 78.90625 201.945312 79.015625 201.800781 79.171875 C 201.65625 79.328125 201.585938 79.511719 201.585938 79.726562 Z M 200.402344 79.738281 C 200.402344 79.101562 200.671875 78.597656 201.214844 78.238281 C 201.753906 77.878906 202.5 77.699219 203.449219 77.699219 C 203.855469 77.699219 204.246094 77.726562 204.628906 77.777344 C 204.601562 77.230469 204.453125 76.839844 204.179688 76.601562 C 203.910156 76.367188 203.464844 76.25 202.84375 76.25 C 202.28125 76.25 201.683594 76.355469 201.050781 76.570312 L 201.050781 75.558594 C 201.664062 75.324219 202.316406 75.210938 203.007812 75.210938 C 203.910156 75.210938 204.609375 75.441406 205.101562 75.910156 C 205.59375 76.375 205.839844 77.046875 205.839844 77.921875 L 205.839844 79.789062 C 205.839844 79.929688 205.824219 80.066406 205.796875 80.207031 C 205.769531 80.34375 205.703125 80.519531 205.597656 80.734375 C 205.496094 80.949219 205.355469 81.136719 205.175781 81.296875 C 204.996094 81.460938 204.730469 81.597656 204.375 81.714844 C 204.019531 81.828125 203.605469 81.886719 203.140625 81.886719 C 202.664062 81.886719 202.246094 81.828125 201.886719 81.707031 C 201.527344 81.585938 201.257812 81.445312 201.074219 81.285156 C 200.890625 81.125 200.746094 80.933594 200.636719 80.710938 C 200.53125 80.492188 200.464844 80.308594 200.4375 80.164062 C 200.414062 80.023438 200.402344 79.878906 200.402344 79.738281 "
       style=" stroke:none;fill-rule:nonzero;fill:rgb(28.834534%,37.812805%,53.109741%);fill-opacity:1;" />
    <path
       id="path69"
       d="M 206.710938 76.324219 L 206.710938 75.3125 L 207.839844 75.3125 L 207.839844 73.390625 L 209.023438 73.390625 L 209.023438 75.3125 L 210.746094 75.3125 L 210.746094 76.324219 L 209.023438 76.324219 L 209.023438 80.066406 C 209.023438 80.570312 209.34375 80.824219 209.980469 80.824219 C 209.984375 80.824219 209.988281 80.824219 209.992188 80.824219 C 210.289062 80.824219 210.539062 80.761719 210.746094 80.632812 L 210.746094 81.707031 C 210.453125 81.828125 210.15625 81.886719 209.859375 81.886719 C 209.851562 81.886719 209.84375 81.886719 209.828125 81.886719 C 209.671875 81.886719 209.507812 81.867188 209.328125 81.832031 C 209.148438 81.792969 208.9375 81.71875 208.691406 81.605469 C 208.445312 81.496094 208.238281 81.300781 208.078125 81.023438 C 207.917969 80.75 207.839844 80.40625 207.839844 79.996094 L 207.839844 76.324219 L 206.710938 76.324219 "
       style=" stroke:none;fill-rule:nonzero;fill:rgb(28.834534%,37.812805%,53.109741%);fill-opacity:1;" />
    <path
       id="path71"
       d="M 211.777344 81.785156 L 211.777344 80.683594 L 215.074219 76.402344 L 211.855469 76.402344 L 211.855469 75.3125 L 216.59375 75.3125 L 216.59375 76.386719 L 213.3125 80.660156 L 216.59375 80.660156 L 216.59375 81.785156 L 211.777344 81.785156 "
       style=" stroke:none;fill-rule:nonzero;fill:rgb(28.834534%,37.812805%,53.109741%);fill-opacity:1;" />
    <path
       id="path73"
       d="M 222.597656 78.429688 L 222.597656 77.414062 L 226.554688 77.414062 L 226.554688 78.429688 L 222.597656 78.429688 "
       style=" stroke:none;fill-rule:nonzero;fill:rgb(28.834534%,37.812805%,53.109741%);fill-opacity:1;" />
    <path
       id="path75"
       d="M 233 81.785156 L 233 73.132812 L 234.3125 73.132812 L 237.148438 76.871094 L 240.003906 73.132812 L 241.3125 73.132812 L 241.3125 81.785156 L 240.105469 81.785156 L 240.105469 74.960938 L 237.148438 78.839844 L 234.210938 74.960938 L 234.210938 81.785156 L 233 81.785156 "
       style=" stroke:none;fill-rule:nonzero;fill:rgb(28.834534%,37.812805%,53.109741%);fill-opacity:1;" />
    <path
       id="path77"
       d="M 244.195312 79.726562 C 244.195312 80.457031 244.714844 80.824219 245.753906 80.824219 C 245.757812 80.824219 245.761719 80.824219 245.769531 80.824219 C 246.75 80.824219 247.238281 80.472656 247.238281 79.773438 L 247.238281 78.726562 C 246.925781 78.675781 246.550781 78.648438 246.113281 78.644531 C 245.941406 78.644531 245.757812 78.660156 245.566406 78.691406 C 245.378906 78.722656 245.175781 78.769531 244.953125 78.839844 C 244.734375 78.90625 244.554688 79.015625 244.410156 79.171875 C 244.269531 79.328125 244.195312 79.511719 244.195312 79.726562 Z M 243.011719 79.738281 C 243.011719 79.101562 243.28125 78.597656 243.824219 78.238281 C 244.363281 77.878906 245.109375 77.699219 246.0625 77.699219 C 246.46875 77.699219 246.859375 77.726562 247.238281 77.777344 C 247.214844 77.230469 247.0625 76.839844 246.792969 76.601562 C 246.519531 76.367188 246.074219 76.25 245.453125 76.25 C 244.890625 76.25 244.296875 76.355469 243.660156 76.570312 L 243.660156 75.558594 C 244.273438 75.324219 244.925781 75.210938 245.617188 75.210938 C 246.523438 75.210938 247.21875 75.441406 247.710938 75.910156 C 248.203125 76.375 248.449219 77.046875 248.449219 77.921875 L 248.449219 79.789062 C 248.449219 79.929688 248.433594 80.066406 248.40625 80.207031 C 248.378906 80.34375 248.3125 80.519531 248.210938 80.734375 C 248.105469 80.949219 247.964844 81.136719 247.785156 81.296875 C 247.609375 81.460938 247.34375 81.597656 246.984375 81.714844 C 246.628906 81.828125 246.21875 81.886719 245.753906 81.886719 C 245.273438 81.886719 244.855469 81.828125 244.496094 81.707031 C 244.136719 81.585938 243.867188 81.445312 243.683594 81.285156 C 243.503906 81.125 243.355469 80.933594 243.25 80.710938 C 243.140625 80.492188 243.074219 80.308594 243.050781 80.164062 C 243.023438 80.023438 243.011719 79.878906 243.011719 79.738281 "
       style=" stroke:none;fill-rule:nonzero;fill:rgb(28.834534%,37.812805%,53.109741%);fill-opacity:1;" />
    <path
       id="path79"
       d="M 250.960938 78.464844 C 250.960938 78.96875 251.011719 79.378906 251.105469 79.710938 C 251.199219 80.039062 251.335938 80.28125 251.511719 80.433594 C 251.6875 80.582031 251.863281 80.6875 252.035156 80.742188 C 252.210938 80.796875 252.414062 80.824219 252.648438 80.824219 C 253.644531 80.824219 254.140625 80.5 254.136719 79.859375 L 254.136719 76.542969 C 253.699219 76.363281 253.234375 76.273438 252.753906 76.273438 C 252.492188 76.273438 252.269531 76.300781 252.078125 76.347656 C 251.886719 76.398438 251.699219 76.496094 251.519531 76.640625 C 251.335938 76.78125 251.199219 77.003906 251.105469 77.308594 C 251.011719 77.613281 250.960938 78 250.960938 78.464844 Z M 249.777344 78.464844 C 249.777344 77.824219 249.863281 77.277344 250.042969 76.828125 C 250.21875 76.378906 250.464844 76.042969 250.769531 75.816406 C 251.074219 75.59375 251.390625 75.4375 251.710938 75.34375 C 252.03125 75.253906 252.378906 75.210938 252.753906 75.210938 C 253.21875 75.210938 253.679688 75.273438 254.136719 75.402344 L 254.136719 72.859375 L 255.320312 72.859375 L 255.320312 79.792969 C 255.320312 79.933594 255.308594 80.070312 255.28125 80.207031 C 255.253906 80.34375 255.1875 80.519531 255.085938 80.734375 C 254.980469 80.953125 254.839844 81.140625 254.664062 81.300781 C 254.484375 81.460938 254.222656 81.597656 253.871094 81.714844 C 253.519531 81.828125 253.113281 81.886719 252.648438 81.886719 C 252.402344 81.886719 252.160156 81.867188 251.929688 81.824219 C 251.699219 81.78125 251.449219 81.6875 251.175781 81.539062 C 250.902344 81.390625 250.667969 81.199219 250.472656 80.960938 C 250.277344 80.726562 250.113281 80.394531 249.980469 79.964844 C 249.84375 79.535156 249.777344 79.035156 249.777344 78.464844 "
       style=" stroke:none;fill-rule:nonzero;fill:rgb(28.834534%,37.812805%,53.109741%);fill-opacity:1;" />
    <path
       id="path81"
       d="M 257.941406 78.15625 L 261.269531 78.15625 C 261.253906 77.941406 261.214844 77.734375 261.160156 77.539062 C 261.101562 77.339844 261.015625 77.140625 260.898438 76.9375 C 260.78125 76.738281 260.613281 76.574219 260.394531 76.453125 C 260.175781 76.335938 259.914062 76.273438 259.609375 76.273438 C 259.066406 76.273438 258.664062 76.414062 258.410156 76.695312 C 258.152344 76.976562 257.996094 77.464844 257.941406 78.15625 Z M 256.753906 78.625 C 256.753906 76.347656 257.703125 75.210938 259.609375 75.210938 C 259.613281 75.210938 259.617188 75.210938 259.621094 75.210938 C 260.488281 75.210938 261.179688 75.492188 261.699219 76.058594 C 262.214844 76.625 262.472656 77.378906 262.472656 78.332031 C 262.472656 78.640625 262.460938 78.9375 262.433594 79.21875 L 257.964844 79.21875 C 258.105469 80.332031 258.714844 80.886719 259.785156 80.886719 C 260.660156 80.886719 261.40625 80.722656 262.023438 80.398438 L 262.023438 81.476562 C 261.355469 81.761719 260.601562 81.902344 259.761719 81.902344 C 259.75 81.902344 259.734375 81.902344 259.722656 81.902344 C 259.34375 81.902344 258.992188 81.851562 258.671875 81.757812 C 258.351562 81.660156 258.039062 81.503906 257.734375 81.285156 C 257.429688 81.066406 257.191406 80.726562 257.015625 80.273438 C 256.839844 79.816406 256.753906 79.269531 256.753906 78.625 "
       style=" stroke:none;fill-rule:nonzero;fill:rgb(28.834534%,37.812805%,53.109741%);fill-opacity:1;" />
    <path
       id="path83"
       d="M 268.6875 81.785156 L 268.6875 75.3125 L 269.871094 75.3125 L 269.871094 81.785156 Z M 268.648438 74.308594 L 268.648438 73.054688 L 269.910156 73.054688 L 269.910156 74.308594 L 268.648438 74.308594 "
       style=" stroke:none;fill-rule:nonzero;fill:rgb(28.834534%,37.812805%,53.109741%);fill-opacity:1;" />
    <path
       id="path85"
       d="M 271.9375 81.785156 L 271.9375 75.859375 C 272.835938 75.417969 273.757812 75.195312 274.695312 75.195312 C 275.515625 75.195312 276.160156 75.410156 276.625 75.835938 C 277.089844 76.261719 277.324219 76.855469 277.324219 77.609375 L 277.324219 81.785156 L 276.113281 81.785156 L 276.113281 77.519531 C 276.113281 77.136719 276.015625 76.835938 275.820312 76.617188 C 275.625 76.394531 275.234375 76.285156 274.644531 76.285156 C 274.117188 76.285156 273.609375 76.363281 273.121094 76.519531 L 273.121094 81.785156 L 271.9375 81.785156 "
       style=" stroke:none;fill-rule:nonzero;fill:rgb(28.834534%,37.812805%,53.109741%);fill-opacity:1;" />
    <path
       id="path87"
       d="M 283.535156 77.453125 C 283.535156 76.75 283.621094 76.128906 283.785156 75.589844 C 283.949219 75.046875 284.160156 74.621094 284.421875 74.304688 C 284.683594 73.992188 284.992188 73.734375 285.355469 73.535156 C 285.71875 73.332031 286.078125 73.199219 286.429688 73.132812 C 286.777344 73.0625 287.15625 73.03125 287.5625 73.03125 C 288.527344 73.03125 289.4375 73.195312 290.300781 73.53125 L 290.300781 74.640625 C 289.457031 74.292969 288.582031 74.121094 287.675781 74.121094 C 287.363281 74.121094 287.085938 74.136719 286.84375 74.175781 C 286.597656 74.214844 286.339844 74.304688 286.066406 74.441406 C 285.796875 74.582031 285.566406 74.769531 285.386719 75 C 285.203125 75.234375 285.054688 75.558594 284.929688 75.972656 C 284.808594 76.390625 284.746094 76.882812 284.746094 77.453125 C 284.746094 78.023438 284.808594 78.519531 284.929688 78.9375 C 285.054688 79.359375 285.203125 79.683594 285.386719 79.917969 C 285.566406 80.148438 285.796875 80.335938 286.074219 80.476562 C 286.347656 80.613281 286.613281 80.703125 286.863281 80.742188 C 287.113281 80.777344 287.394531 80.796875 287.703125 80.796875 C 288.273438 80.796875 288.851562 80.714844 289.441406 80.550781 L 289.441406 78.113281 L 287.695312 78.113281 L 287.695312 76.984375 L 290.628906 76.984375 L 290.628906 81.203125 C 289.667969 81.660156 288.65625 81.886719 287.601562 81.886719 C 287.589844 81.886719 287.578125 81.886719 287.570312 81.886719 C 287.164062 81.886719 286.785156 81.855469 286.433594 81.785156 C 286.082031 81.71875 285.726562 81.585938 285.359375 81.382812 C 284.996094 81.183594 284.683594 80.921875 284.425781 80.605469 C 284.164062 80.285156 283.949219 79.859375 283.785156 79.320312 C 283.621094 78.785156 283.535156 78.160156 283.535156 77.453125 "
       style=" stroke:none;fill-rule:nonzero;fill:rgb(28.834534%,37.812805%,53.109741%);fill-opacity:1;" />
    <path
       id="path89"
       d="M 293.40625 78.15625 L 296.734375 78.15625 C 296.71875 77.941406 296.679688 77.734375 296.621094 77.539062 C 296.566406 77.339844 296.480469 77.140625 296.363281 76.9375 C 296.246094 76.738281 296.078125 76.574219 295.859375 76.453125 C 295.640625 76.335938 295.378906 76.273438 295.074219 76.273438 C 294.527344 76.273438 294.128906 76.414062 293.871094 76.695312 C 293.617188 76.976562 293.460938 77.464844 293.40625 78.15625 Z M 292.214844 78.625 C 292.214844 76.347656 293.167969 75.210938 295.074219 75.210938 C 295.078125 75.210938 295.082031 75.210938 295.085938 75.210938 C 295.953125 75.210938 296.644531 75.492188 297.160156 76.058594 C 297.679688 76.625 297.9375 77.378906 297.9375 78.332031 C 297.9375 78.640625 297.925781 78.9375 297.898438 79.21875 L 293.425781 79.21875 C 293.570312 80.332031 294.179688 80.886719 295.25 80.886719 C 296.125 80.886719 296.871094 80.722656 297.488281 80.398438 L 297.488281 81.476562 C 296.820312 81.761719 296.066406 81.902344 295.226562 81.902344 C 295.214844 81.902344 295.199219 81.902344 295.1875 81.902344 C 294.808594 81.902344 294.457031 81.851562 294.136719 81.757812 C 293.816406 81.660156 293.503906 81.503906 293.199219 81.285156 C 292.894531 81.066406 292.65625 80.726562 292.480469 80.273438 C 292.304688 79.816406 292.214844 79.269531 292.214844 78.625 "
       style=" stroke:none;fill-rule:nonzero;fill:rgb(28.834534%,37.812805%,53.109741%);fill-opacity:1;" />
    <path
       id="path91"
       d="M 299.414062 81.785156 L 299.414062 75.855469 C 300.496094 75.425781 301.546875 75.210938 302.570312 75.210938 L 302.570312 76.300781 C 301.925781 76.308594 301.265625 76.398438 300.597656 76.570312 L 300.597656 81.785156 L 299.414062 81.785156 "
       style=" stroke:none;fill-rule:nonzero;fill:rgb(28.834534%,37.812805%,53.109741%);fill-opacity:1;" />
    <path
       id="path93"
       d="M 303.878906 81.785156 L 303.878906 75.84375 C 304.742188 75.410156 305.640625 75.195312 306.570312 75.195312 C 307.269531 75.195312 307.847656 75.359375 308.300781 75.683594 C 309.113281 75.359375 309.90625 75.195312 310.675781 75.195312 C 311.492188 75.195312 312.132812 75.410156 312.589844 75.835938 C 313.046875 76.261719 313.277344 76.859375 313.277344 77.625 L 313.277344 81.785156 L 312.09375 81.785156 L 312.09375 77.542969 C 312.09375 77.167969 312 76.871094 311.816406 76.640625 C 311.636719 76.414062 311.28125 76.300781 310.75 76.300781 C 310.179688 76.300781 309.601562 76.417969 309.011719 76.660156 C 309.113281 76.933594 309.164062 77.242188 309.164062 77.585938 C 309.164062 77.597656 309.164062 77.609375 309.164062 77.625 L 309.164062 81.785156 L 307.980469 81.785156 L 307.980469 77.554688 C 307.980469 77.171875 307.878906 76.875 307.675781 76.652344 C 307.476562 76.433594 307.078125 76.324219 306.480469 76.324219 C 306.019531 76.324219 305.546875 76.390625 305.0625 76.519531 L 305.0625 81.785156 L 303.878906 81.785156 "
       style=" stroke:none;fill-rule:nonzero;fill:rgb(28.834534%,37.812805%,53.109741%);fill-opacity:1;" />
    <path
       id="path95"
       d="M 315.925781 79.726562 C 315.925781 80.457031 316.441406 80.824219 317.480469 80.824219 C 317.484375 80.824219 317.488281 80.824219 317.5 80.824219 C 318.476562 80.824219 318.964844 80.472656 318.964844 79.773438 L 318.964844 78.726562 C 318.652344 78.675781 318.277344 78.648438 317.839844 78.644531 C 317.667969 78.644531 317.484375 78.660156 317.296875 78.691406 C 317.105469 78.722656 316.902344 78.769531 316.683594 78.839844 C 316.464844 78.90625 316.28125 79.015625 316.140625 79.171875 C 315.996094 79.328125 315.925781 79.511719 315.925781 79.726562 Z M 314.738281 79.738281 C 314.738281 79.101562 315.011719 78.597656 315.550781 78.238281 C 316.09375 77.878906 316.839844 77.699219 317.789062 77.699219 C 318.195312 77.699219 318.585938 77.726562 318.964844 77.777344 C 318.941406 77.230469 318.789062 76.839844 318.519531 76.601562 C 318.246094 76.367188 317.800781 76.25 317.183594 76.25 C 316.621094 76.25 316.023438 76.355469 315.386719 76.570312 L 315.386719 75.558594 C 316 75.324219 316.652344 75.210938 317.347656 75.210938 C 318.25 75.210938 318.945312 75.441406 319.4375 75.910156 C 319.929688 76.375 320.175781 77.046875 320.175781 77.921875 L 320.175781 79.789062 C 320.175781 79.929688 320.160156 80.066406 320.136719 80.207031 C 320.105469 80.34375 320.039062 80.519531 319.9375 80.734375 C 319.835938 80.949219 319.691406 81.136719 319.515625 81.296875 C 319.335938 81.460938 319.070312 81.597656 318.714844 81.714844 C 318.355469 81.828125 317.945312 81.886719 317.480469 81.886719 C 317 81.886719 316.582031 81.828125 316.222656 81.707031 C 315.863281 81.585938 315.59375 81.445312 315.410156 81.285156 C 315.230469 81.125 315.085938 80.933594 314.976562 80.710938 C 314.867188 80.492188 314.800781 80.308594 314.777344 80.164062 C 314.753906 80.023438 314.738281 79.878906 314.738281 79.738281 "
       style=" stroke:none;fill-rule:nonzero;fill:rgb(28.834534%,37.812805%,53.109741%);fill-opacity:1;" />
    <path
       id="path97"
       d="M 321.835938 81.785156 L 321.835938 75.859375 C 322.734375 75.417969 323.652344 75.195312 324.59375 75.195312 C 325.414062 75.195312 326.054688 75.410156 326.523438 75.835938 C 326.988281 76.261719 327.21875 76.855469 327.21875 77.609375 L 327.21875 81.785156 L 326.011719 81.785156 L 326.011719 77.519531 C 326.011719 77.136719 325.914062 76.835938 325.71875 76.617188 C 325.523438 76.394531 325.132812 76.285156 324.542969 76.285156 C 324.015625 76.285156 323.507812 76.363281 323.019531 76.519531 L 323.019531 81.785156 L 321.835938 81.785156 "
       style=" stroke:none;fill-rule:nonzero;fill:rgb(28.834534%,37.812805%,53.109741%);fill-opacity:1;" />
    <g
       id="g101"
       clip-rule="nonzero"
       clip-path="url(#clip3)">
      <path
         id="path99"
         d="M 328.449219 75.3125 L 329.722656 75.3125 L 331.464844 80.160156 L 333.175781 75.3125 L 334.449219 75.3125 L 331.789062 82.476562 C 331.328125 83.71875 330.65625 84.339844 329.777344 84.339844 L 329.773438 84.339844 C 329.484375 84.339844 329.183594 84.304688 328.867188 84.238281 L 328.867188 83.167969 C 329.125 83.234375 329.367188 83.269531 329.59375 83.277344 C 330.132812 83.277344 330.566406 82.777344 330.894531 81.78125 L 328.449219 75.3125 "
         style=" stroke:none;fill-rule:nonzero;fill:rgb(28.834534%,37.812805%,53.109741%);fill-opacity:1;" />
    </g>
    <path
       id="path103"
       d="M 336.71875 81.785156 L 336.71875 80.695312 L 337.902344 80.695312 L 337.902344 81.785156 Z M 336.691406 73.132812 L 337.933594 73.132812 L 337.824219 79.679688 L 336.800781 79.679688 L 336.691406 73.132812 "
       style=" stroke:none;fill-rule:nonzero;fill:rgb(28.834534%,37.812805%,53.109741%);fill-opacity:1;" />
    <path
       id="path105"
       d="M 44.546875 77.417969 C 30.652344 77.417969 19.351562 66.113281 19.351562 52.222656 C 19.351562 38.332031 30.652344 27.027344 44.546875 27.027344 C 58.4375 27.027344 69.738281 38.332031 69.738281 52.222656 C 69.738281 66.113281 58.4375 77.417969 44.546875 77.417969 Z M 85.585938 23.363281 L 3.246094 23.363281 C 1.457031 23.363281 0 24.820312 0 26.609375 L 0 78.308594 C 0 80.097656 1.457031 81.554688 3.246094 81.554688 L 85.585938 81.554688 C 87.375 81.554688 88.828125 80.097656 88.828125 78.308594 L 88.828125 26.609375 C 88.828125 24.820312 87.375 23.363281 85.585938 23.363281 Z M 49.992188 52.839844 C 48.761719 51.945312 46.730469 51.496094 43.890625 51.496094 C 43.746094 51.496094 43.542969 51.503906 43.273438 51.515625 C 43.003906 51.527344 42.804688 51.535156 42.675781 51.535156 L 42.675781 59.15625 C 42.675781 60.96875 42.910156 62.078125 43.378906 62.492188 C 43.851562 62.902344 44.761719 63.109375 46.109375 63.109375 C 47.96875 63.109375 49.386719 62.609375 50.367188 61.613281 C 51.34375 60.617188 51.832031 59.171875 51.832031 57.277344 C 51.832031 55.214844 51.21875 53.734375 49.992188 52.839844 Z M 44.355469 49.621094 C 46.707031 49.621094 48.367188 49.257812 49.347656 48.535156 C 50.324219 47.816406 50.8125 46.601562 50.8125 44.894531 C 50.8125 43.488281 50.398438 42.378906 49.570312 41.570312 C 48.742188 40.757812 47.617188 40.351562 46.199219 40.351562 C 44.777344 40.351562 43.835938 40.542969 43.371094 40.925781 C 42.90625 41.304688 42.675781 42.375 42.675781 44.128906 L 42.675781 49.582031 C 42.875 49.59375 43.097656 49.605469 43.335938 49.609375 C 43.574219 49.617188 43.914062 49.621094 44.355469 49.621094 Z M 58.238281 60.59375 C 57.75 61.53125 57.035156 62.332031 56.09375 63 C 55.148438 63.65625 53.9375 64.125 52.449219 64.40625 C 51.5 64.585938 50.230469 64.699219 48.707031 64.765625 L 48.707031 69.589844 C 48.707031 70.492188 48.027344 71.222656 47.183594 71.222656 C 46.339844 71.222656 45.65625 70.492188 45.65625 69.589844 L 45.65625 64.824219 L 42.601562 64.824219 L 42.601562 69.589844 C 42.601562 70.492188 41.917969 71.222656 41.074219 71.222656 C 40.230469 71.222656 39.546875 70.492188 39.546875 69.589844 L 39.546875 64.824219 L 32.601562 64.824219 L 32.601562 62.929688 L 33.710938 62.839844 C 34.605469 62.78125 35.21875 62.550781 35.546875 62.152344 C 35.871094 61.75 36.035156 60.753906 36.035156 59.15625 L 36.035156 44.128906 C 36.035156 42.515625 35.871094 41.511719 35.546875 41.113281 C 35.21875 40.714844 34.601562 40.484375 33.695312 40.425781 L 32.601562 40.351562 L 32.601562 38.4375 L 39.546875 38.4375 L 39.546875 33.671875 C 39.546875 32.773438 40.230469 32.042969 41.074219 32.042969 C 41.917969 32.042969 42.601562 32.773438 42.601562 33.671875 L 42.601562 38.4375 L 44.320312 38.4375 C 44.78125 38.4375 45.21875 38.445312 45.65625 38.457031 L 45.65625 33.671875 C 45.65625 32.773438 46.339844 32.042969 47.183594 32.042969 C 48.027344 32.042969 48.707031 32.773438 48.707031 33.671875 L 48.707031 38.605469 C 51.316406 38.816406 53.300781 39.238281 54.632812 39.878906 C 56.632812 40.839844 57.628906 42.441406 57.628906 44.683594 C 57.628906 46.304688 56.945312 47.605469 55.582031 48.589844 C 54.214844 49.574219 52.183594 50.210938 49.488281 50.496094 C 52.734375 50.949219 55.125 51.746094 56.664062 52.882812 C 58.203125 54.023438 58.972656 55.558594 58.972656 57.492188 C 58.972656 58.625 58.726562 59.660156 58.238281 60.59375 Z M 44.546875 29.191406 C 31.847656 29.191406 21.515625 39.523438 21.515625 52.222656 C 21.515625 64.921875 31.847656 75.253906 44.546875 75.253906 C 57.246094 75.253906 67.574219 64.921875 67.574219 52.222656 C 67.574219 39.523438 57.246094 29.191406 44.546875 29.191406 "
       style=" stroke:none;fill-rule:nonzero;fill:rgb(28.834534%,37.812805%,53.109741%);fill-opacity:1;" />
    <path
       id="path107"
       d="M 56.578125 0 C 48.777344 0 41.941406 4.113281 38.101562 10.285156 C 43.289062 12.347656 47.546875 16.261719 50.0625 21.203125 L 78.324219 21.203125 C 78.019531 9.441406 68.410156 0 56.578125 0 Z M 29.6875 10.824219 C 22.035156 10.824219 15.355469 15.007812 11.777344 21.203125 L 47.601562 21.203125 C 44.019531 15.007812 37.339844 10.824219 29.6875 10.824219 "
       style=" stroke:none;fill-rule:nonzero;fill:rgb(98.051453%,73.562622%,8.938599%);fill-opacity:1;" />
  </g>
</svg>
